<?xml version="1.0" encoding="UTF-8" standalone="no"?>
<!-- Created with Inkscape (http://www.inkscape.org/) -->

<svg
   width="135.31786mm"
   height="153.93956mm"
   viewBox="0 0 135.31786 153.93956"
   version="1.1"
   id="svg5"
   xml:space="preserve"
   xmlns="http://www.w3.org/2000/svg"
   xmlns:svg="http://www.w3.org/2000/svg"><defs
     id="defs2" /><g
     id="layer1"
     transform="translate(-33.49283,-40.857405)"><path
       style="fill:#1a4e4e;stroke-width:0.157143"
       d="m 99.828766,194.59725 c -0.744195,-0.26586 -1.351757,-0.7515 -1.847572,-1.4768 -0.304749,-0.4458 -0.413223,-0.83377 -0.460399,-1.64675 -0.0893,-1.5387 0.307766,-2.38401 1.548423,-3.2964 l 0.625636,-0.46009 v -10.67212 c 0,-5.86966 -0.05494,-10.67212 -0.122117,-10.67212 -0.06717,0 -1.835023,1.71814 -3.928574,3.81808 l -3.806451,3.81807 v 3.94576 3.94575 l 0.763616,0.5486 c 1.861154,1.3371 2.136581,3.89688 0.599455,5.57104 -0.836741,0.91135 -1.658579,1.28768 -2.821687,1.29209 -1.080968,0.004 -1.88683,-0.30151 -2.601578,-0.98665 -1.572561,-1.50737 -1.671134,-3.69426 -0.238372,-5.28785 0.384121,-0.42721 0.836645,-0.82065 1.005623,-0.87427 0.295192,-0.0937 0.307231,-0.26905 0.307231,-4.4767 0,-2.65182 0.06447,-4.54875 0.163443,-4.80909 0.0899,-0.23645 2.449949,-2.73373 5.244546,-5.54951 2.79461,-2.81578 5.160697,-5.27406 5.257982,-5.46285 0.127664,-0.24773 0.176883,-4.78544 0.176883,-16.30945 v -15.96622 l 1.409946,0.0452 1.40995,0.0452 0.0262,15.87142 c 0.0153,9.1913 0.087,16.03677 0.17068,16.26428 0.0795,0.21607 2.21301,2.47893 4.74119,5.02857 2.52819,2.54964 4.85761,4.93645 5.1765,5.30402 l 0.57978,0.66832 v 4.47192 c 0,3.38669 0.0477,4.51108 0.19643,4.63329 0.10804,0.0888 0.50926,0.39207 0.8916,0.67405 0.38234,0.28198 0.86494,0.8309 1.07244,1.21982 0.32291,0.60528 0.36982,0.88074 0.32566,1.91231 -0.0446,1.04157 -0.1161,1.29693 -0.52682,1.88132 -0.76864,1.09364 -1.62632,1.60171 -2.83365,1.67859 -1.31491,0.0837 -2.25209,-0.26182 -3.15263,-1.16236 -1.65008,-1.65008 -1.3948,-4.28626 0.54824,-5.66156 l 0.64345,-0.45544 0.004,-3.99738 0.004,-3.99739 -3.73214,-3.79734 c -2.05268,-2.08853 -3.82054,-3.80774 -3.92857,-3.82047 -0.15545,-0.0183 -0.19643,2.20349 -0.19643,10.64784 v 10.67097 l 0.79849,0.57366 c 1.01318,0.72789 1.4585,1.64954 1.44854,2.99785 -0.008,1.03101 -0.3696,1.93696 -1.01389,2.5375 -0.95203,0.88739 -2.66463,1.22458 -3.927793,0.77333 z m 2.258694,-2.42402 c 0.14914,-0.14611 0.31653,-0.4924 0.37196,-0.76952 0.0847,-0.42356 0.0247,-0.58001 -0.37696,-0.98159 -0.60484,-0.60484 -1.29739,-0.63938 -1.84476,-0.092 -0.69036,0.69037 -0.403007,1.81371 0.55715,2.17801 0.34861,0.13227 0.98367,-0.0323 1.29261,-0.33488 z m -10.681895,-5.70386 c 0.455137,-0.54819 0.292633,-1.49501 -0.339945,-1.9807 -0.716523,-0.55012 -2.056479,0.0886 -2.056479,0.98034 0,1.25601 1.622011,1.93309 2.396424,1.00036 z m 21.402115,0.13573 c 0.61518,-0.54135 0.67622,-1.21109 0.16569,-1.81782 -0.31891,-0.379 -0.54836,-0.50003 -0.94801,-0.50003 -0.66542,0 -1.2982,0.537 -1.42764,1.21155 -0.0809,0.42178 -0.0185,0.58271 0.38094,0.98215 0.58401,0.58402 1.25471,0.62954 1.82902,0.12415 z M 68.350255,180.08 c -0.537402,-0.29508 -0.928745,-0.66944 -1.257145,-1.20258 -0.422839,-0.68648 -0.476239,-0.90884 -0.471665,-1.96428 0.0042,-0.92259 0.08447,-1.3408 0.357846,-1.86014 0.87304,-1.65846 3.149801,-2.32865 4.901288,-1.44274 0.569182,0.2879 0.927105,0.59284 1.531104,1.30449 l 0.35253,0.41536 h 2.435149 2.435148 l 2.049554,-2.08214 2.049565,-2.08214 -8.394116,-0.0786 -8.39411,-0.0786 -3.72642,-3.81071 -3.726425,-3.81071 h -2.731327 -2.731333 l -0.828223,0.84915 c -1.235912,1.26712 -2.85332,1.56477 -4.453658,0.81958 -2.778633,-1.29385 -2.811792,-5.07092 -0.05678,-6.467 1.556922,-0.78894 3.626949,-0.33255 4.713387,1.03919 l 0.48807,0.61622 h 3.286155 3.286154 l 3.873113,3.92857 3.873113,3.92857 9.209672,0.004 9.209652,0.004 5.696423,-5.74034 5.696429,-5.74035 -0.0036,2.08239 -0.0036,2.08239 -8.678683,8.76752 -8.678666,8.76751 -3.024999,-0.007 c -1.663752,-0.004 -3.024999,0.0512 -3.024999,0.12205 0,0.30958 -1.21718,1.51078 -1.798377,1.77476 -0.999162,0.45383 -2.489452,0.39379 -3.46052,-0.13943 z m 2.890339,-2.33537 c 0.179127,-0.22772 0.325696,-0.57735 0.325696,-0.77695 0,-0.50284 -0.610769,-1.14802 -1.19221,-1.25939 -0.613579,-0.11754 -1.279458,0.41934 -1.418372,1.14354 -0.218065,1.13687 1.5496,1.82756 2.284886,0.8928 z M 50.340603,162.65892 c 0.38481,-0.48921 0.408811,-0.85511 0.09579,-1.46042 -0.375444,-0.72604 -1.175788,-0.86045 -1.870331,-0.31412 -0.536106,0.42169 -0.570709,1.29443 -0.07238,1.82488 0.49572,0.52769 1.411879,0.50272 1.846912,-0.0504 z m 80.019187,17.51757 c -0.38852,-0.19231 -0.93267,-0.66453 -1.25714,-1.09093 l -0.57209,-0.75184 -2.97711,-0.009 -2.9771,-0.009 -6.84433,-6.95474 c -3.76437,-3.82511 -7.67521,-7.8119 -8.69074,-8.85955 l -1.84643,-1.90481 0.007,-2.0226 0.007,-2.02258 5.68912,5.77669 5.6891,5.77671 9.18577,-0.002 9.18576,-0.002 3.93967,-3.92857 3.93964,-3.92857 h 3.33528 c 1.83441,0 3.3353,-0.0599 3.3353,-0.13304 0,-0.27418 1.17687,-1.33119 1.79444,-1.61167 0.84265,-0.38271 2.3214,-0.38464 3.15905,-0.004 1.37243,0.62344 2.11793,1.78846 2.11793,3.30976 0,1.15513 -0.24713,1.80489 -0.95621,2.51395 -1.59465,1.59465 -4.40592,1.45596 -5.80617,-0.28647 l -0.51878,-0.64556 h -2.76182 -2.7618 l -3.81297,3.81071 -3.81298,3.81071 -8.2882,0.0786 -8.2882,0.0786 2.04286,2.08374 2.04286,2.08374 2.36371,-0.002 2.36371,-0.002 0.70057,-0.7201 c 0.98479,-1.01226 1.69452,-1.34239 2.88584,-1.34239 1.25421,0 2.16134,0.36551 2.82167,1.13694 1.25335,1.46427 1.17931,3.94818 -0.15498,5.19937 -1.02483,0.96099 -2.96952,1.22115 -4.27986,0.57256 z m 2.64933,-2.3321 c 0.466,-0.46598 0.40565,-1.18994 -0.14506,-1.74065 -0.25264,-0.25264 -0.56625,-0.45934 -0.69691,-0.45934 -1.24828,0 -1.94803,1.61178 -0.99082,2.28223 0.48487,0.33962 1.45446,0.2961 1.83279,-0.0822 z m 20.88858,-15.18547 c 0.65977,-0.83875 0.25288,-1.87627 -0.80203,-2.04512 -0.48135,-0.077 -0.64522,-0.025 -0.98215,0.31191 -0.50733,0.50733 -0.5499,1.37319 -0.0901,1.83297 0.48056,0.48057 1.45878,0.4285 1.8743,-0.0998 z m -88.683093,-2.41235 -5.017251,-5.03074 H 51.9986 43.799831 l -0.848897,0.84706 c -0.555077,0.55384 -1.066501,0.90709 -1.477491,1.02055 -2.610409,0.72052 -4.856321,-0.842 -4.839287,-3.36678 0.01651,-2.44942 2.403022,-4.25992 4.619416,-3.50447 0.765207,0.26082 1.740071,0.97072 2.105584,1.53329 l 0.314288,0.48374 8.855169,4.7e-4 8.855186,4.7e-4 5.051949,5.02742 5.051972,5.02743 3.805887,0.002 3.805875,0.002 0.573524,-0.90358 c 0.804021,-1.26672 2.941286,-3.31253 4.110731,-3.93485 0.64331,-0.34234 1.589244,-0.64508 2.799985,-0.89615 1.005646,-0.20854 2.285389,-0.59298 2.84384,-0.85432 1.274083,-0.59621 2.83679,-2.07153 3.487596,-3.29257 0.969494,-1.81897 0.965408,-1.7648 0.965408,-12.78011 v -10.02454 h 1.492856 1.492861 l -0.0018,10.56785 c -0.0018,11.48796 0.01384,11.25627 -0.90475,13.20288 -1.376963,2.91795 -4.164315,5.15622 -7.264802,5.83371 -2.872634,0.62771 -3.24398,0.74729 -4.0626,1.30825 -0.967279,0.66282 -1.706305,1.49775 -2.974776,3.36075 l -0.898336,1.3194 -5.263642,0.0414 -5.263641,0.0415 -5.017252,-5.03073 z m -24.151905,-5.62002 c 0.523587,-0.43471 0.589917,-1.16545 0.150263,-1.65502 -0.620135,-0.69051 -1.686772,-0.5912 -2.093267,0.19489 -0.267064,0.51643 -0.115453,1.18676 0.348005,1.5387 0.372463,0.28284 1.209357,0.24161 1.594999,-0.0786 z m 80.336098,10.35038 c -0.16281,-0.16282 -0.59878,-0.74621 -0.96878,-1.29643 -1.00848,-1.49961 -1.8106,-2.41698 -2.65581,-3.03743 -0.94338,-0.69249 -1.63558,-0.94064 -3.49663,-1.25352 -2.26789,-0.38128 -4.07027,-1.33415 -5.78924,-3.06057 -1.07644,-1.08113 -1.47148,-1.61398 -1.99024,-2.68458 -1.16911,-2.41278 -1.14611,-2.13737 -1.14611,-13.72074 v -10.3221 h 1.49286 1.49286 v 7.79207 c 0,10.07064 0.0878,12.60417 0.47493,13.70564 0.44441,1.26444 1.02855,2.166 2.06385,3.18536 1.2469,1.22768 2.4386,1.78904 4.85001,2.28461 1.17417,0.24129 2.27259,0.57087 2.73714,0.82124 1.01243,0.54567 3.18211,2.60463 3.9565,3.7546 0.33573,0.49855 0.68113,0.95842 0.76756,1.02192 0.0864,0.0635 1.85177,0.11653 3.92298,0.11786 l 3.76583,0.002 5.03734,-5.02856 5.03733,-5.02857 h 8.74497 8.74497 l 0.91614,-0.91309 c 0.67925,-0.67698 1.10972,-0.96686 1.66481,-1.12105 1.57091,-0.43636 3.24841,0.22562 4.11221,1.62278 1.42557,2.30581 -0.0339,5.2138 -2.71406,5.40766 -1.39191,0.10069 -2.14117,-0.17728 -3.12224,-1.15837 l -0.85221,-0.85218 h -8.27997 -8.27995 l -5.02673,5.02858 -5.02673,5.02857 h -5.06877 c -4.75512,0 -5.0871,-0.0184 -5.36482,-0.29604 z m 41.61319,-10.48943 c 0.17913,-0.22773 0.32569,-0.57176 0.32569,-0.76453 0,-0.19275 -0.14656,-0.53679 -0.32569,-0.76451 -0.25308,-0.32174 -0.46329,-0.41405 -0.94286,-0.41405 -0.77029,0 -1.24573,0.43093 -1.24573,1.12915 0,1.14407 1.49235,1.69907 2.18859,0.81394 z M 53.701164,145.62615 c -3.760427,-0.31441 -7.792677,-1.59042 -10.869568,-3.43968 -3.682605,-2.21331 -6.836267,-5.60224 -8.640351,-9.28492 -1.151782,-2.35114 -1.226064,-2.05635 2.49457,-9.89999 1.575726,-3.32185 2.083907,-4.40996 5.063981,-10.84285 0.820788,-1.77179 2.799041,-6.01464 4.396119,-9.42857 3.921102,-8.381818 7.191809,-15.491998 7.191809,-15.634268 0,-0.0642 -0.270884,-0.37967 -0.601968,-0.70098 -1.391478,-1.35038 -1.825762,-3.46009 -1.057644,-5.13789 0.234315,-0.51182 0.720592,-1.19399 1.108859,-1.55556 l 0.691525,-0.64397 -1.001644,-0.65854 c -0.550895,-0.3622 -1.220481,-0.93486 -1.487973,-1.2726 -2.381636,-3.00706 -1.476998,-7.31924 1.916372,-9.13485 0.860467,-0.46038 1.158113,-0.53328 2.396763,-0.58697 1.645957,-0.0713 2.746976,0.2533 3.935326,1.16038 0.627251,0.47879 0.808921,0.53659 1.683892,0.53576 1.357512,-10e-4 3.696171,-0.37629 5.380776,-0.86283 1.510032,-0.43612 5.289156,-2.05622 8.249994,-3.53676 2.707131,-1.35367 6.736209,-2.9095 9.03571,-3.48914 1.935294,-0.48783 2.187647,-0.51438 4.79286,-0.50435 2.442828,0.009 2.919049,0.056 4.263471,0.41709 0.832398,0.22357 1.963826,0.59483 2.514283,0.82501 1.658394,0.69351 1.552117,0.71649 1.541444,-0.33333 -0.01556,-1.53087 -0.221991,-2.38427 -0.747794,-3.09143 -0.844894,-1.13629 -1.43528,-2.41615 -1.624463,-3.52161 -0.321439,-1.87823 -0.0018,-2.83801 2.769688,-8.30448 1.317125,-2.598307 2.51894,-4.913699 2.670688,-5.145315 0.157004,-0.239603 0.532781,-0.49807 0.871821,-0.599648 0.50492,-0.151283 0.68781,-0.133466 1.19824,0.116747 0.56652,0.277698 0.74454,0.575695 2.99077,5.006277 1.31362,2.59105 2.53628,5.161469 2.71702,5.712039 0.85314,2.59883 0.54009,4.201 -1.33657,6.84054 -0.53197,0.74823 -0.54289,0.79517 -0.54289,2.33467 0,1.43746 0.0234,1.56082 0.27499,1.45044 0.15125,-0.0663 1.02577,-0.38619 1.94338,-0.71075 2.40225,-0.84971 4.41731,-1.15148 6.95925,-1.04222 3.67381,0.15792 6.62239,1.09108 12.90094,4.08289 4.79081,2.28288 6.13239,2.86204 7.87268,3.39866 1.82726,0.56343 4.12025,0.95691 5.58151,0.9578 0.96913,6.5e-4 1.11037,-0.0466 2.07537,-0.69373 1.22901,-0.82414 2.26729,-1.09443 3.88831,-1.01222 2.15037,0.10904 3.94535,1.35405 4.90716,3.40361 0.44335,0.94476 0.49311,1.19831 0.4844,2.46726 -0.0161,2.34345 -0.93196,4.00908 -2.89818,5.27081 l -0.79668,0.51122 0.71039,0.72327 c 0.39071,0.39779 0.87067,1.07684 1.06658,1.50898 0.73265,1.61613 0.28875,3.87256 -0.9889,5.02685 -0.33539,0.30299 -0.60979,0.66737 -0.60979,0.80973 0,0.14235 0.32753,0.97343 0.72784,1.84683 2.46912,5.3871 13.67203,29.467908 16.74906,36.002278 0.81397,1.72858 1.68291,3.66083 1.93097,4.29392 0.41925,1.06997 0.43724,1.20253 0.25557,1.88181 -0.66447,2.48432 -3.36311,6.37314 -5.98401,8.62305 -8.38542,7.19853 -21.16546,7.91666 -30.47424,1.7124 -2.40251,-1.60127 -4.78794,-4.03621 -6.39215,-6.52478 -0.91918,-1.42595 -1.95014,-3.69684 -1.95345,-4.30292 -0.003,-0.52294 0.45556,-1.6079 2.43462,-5.76205 1.42411,-2.98927 2.71705,-5.74488 4.86633,-10.37142 0.58218,-1.25322 1.57529,-3.37464 2.20691,-4.71429 1.24881,-2.64867 4.64294,-9.941348 6.83829,-14.692848 0.75873,-1.64214 1.90843,-4.12824 2.55489,-5.52468 l 1.17539,-2.53896 -0.61849,-0.60389 c -0.73457,-0.71722 -1.3317,-1.89448 -1.47424,-2.90656 -0.20785,-1.47577 0.70297,-3.37271 1.96565,-4.09383 0.64892,-0.37059 0.80423,-0.59636 0.41024,-0.59636 -0.12303,0 -0.54376,-0.24432 -0.93497,-0.54294 l -0.71129,-0.54294 -1.46146,0.16737 c -2.00336,0.22942 -5.662,0.0675 -7.51146,-0.33246 -2.16002,-0.46712 -5.13385,-1.30965 -8.70857,-2.46726 -4.70813,-1.52466 -6.56588,-1.95275 -8.89142,-2.04891 -1.5395,-0.0636 -2.18314,-0.024 -2.97629,0.18358 -1.92683,0.50416 -3.32754,1.46411 -4.09898,2.80916 l -0.46463,0.81012 -0.002,10.64642 -0.002,10.64643 h -1.57546 -1.57548 l 0.0434,-14.14288 c 0.0238,-7.77858 0.0323,-14.14287 0.0189,-14.14285 -0.0984,1.1e-4 -2.28754,3.21039 -2.41146,3.53629 -0.0994,0.26191 -0.15674,4.86001 -0.15674,12.5811 v 12.16834 h -1.72858 -1.728563 v -12.16834 c 0,-7.72109 -0.05737,-12.31919 -0.156939,-12.5811 -0.123905,-0.3259 -2.313031,-3.53617 -2.411451,-3.53629 -0.01354,-2e-5 -0.0048,6.36426 0.01966,14.14285 l 0.04413,14.14288 h -1.497678 -1.497667 l -0.0018,-10.25357 c 0,-6.49391 -0.05973,-10.46545 -0.161369,-10.83143 -0.423897,-1.52619 -2.074552,-3.03878 -4.007222,-3.67204 -0.756625,-0.24792 -1.362447,-0.3056 -3.137673,-0.29874 -1.935241,0.007 -2.445833,0.0696 -4.242855,0.51587 -1.12357,0.27906 -3.209639,0.88976 -4.635707,1.35712 -3.371454,1.10489 -7.200885,2.17923 -9.271428,2.60107 -2.052583,0.41818 -5.262715,0.56416 -7.185151,0.32674 l -1.44944,-0.179 -0.769323,0.55271 c -0.423137,0.30399 -0.849278,0.5527 -0.946991,0.5527 -0.32657,0 -0.171175,0.23196 0.436874,0.65213 0.735399,0.50818 1.394127,1.34825 1.675535,2.13684 0.54147,1.51725 0.05108,3.5371 -1.134599,4.67315 -0.517927,0.49627 -0.665126,0.73799 -0.585296,0.96116 0.338329,0.94574 12.393129,26.890258 17.187433,36.990988 2.473047,5.21032 2.708907,5.79528 2.629374,6.52143 -0.03789,0.34571 -0.328363,1.18982 -0.645543,1.87579 -1.911657,4.13429 -5.824106,8.12197 -10.063363,10.25682 -4.148819,2.08931 -9.295499,3.09604 -13.871778,2.71341 z m 19.4814,-11.89959 c 0.599503,-0.82402 1.112666,-1.76273 1.016308,-1.85909 -0.121767,-0.12177 -36.732585,-0.14206 -36.732585,-0.0204 3e-5,0.2168 0.58248,1.26636 1.086628,1.95803 l 0.486782,0.66785 h 16.799914 16.799915 z m 90.519506,-0.0206 c 0.62033,-0.86347 1.10462,-1.745 1.01038,-1.83922 -0.0344,-0.0344 -8.33093,-0.0627 -18.43658,-0.0627 -13.20895,-4e-5 -18.36136,0.0482 -18.32935,0.17162 0.059,0.22756 1.10465,1.87315 1.41205,2.2223 0.22775,0.25868 1.23794,0.275 17.01731,0.275 h 16.77518 z M 54.292649,110.91719 c -0.0036,-9.71461 -0.03029,-17.686208 -0.05874,-17.714648 -0.02845,-0.0284 -1.702803,3.50023 -3.720795,7.841508 -3.702978,7.96619 -6.977913,14.97389 -10.702135,22.90044 -1.116716,2.37683 -2.030411,4.41049 -2.030411,4.51925 0,0.1569 1.705819,0.18934 8.259538,0.15707 l 8.259521,-0.0407 -0.0069,-17.66294 z m 19.630784,17.56922 c 0,-0.0948 -1.619041,-3.61279 -3.597877,-7.81785 -3.778358,-8.02907 -6.258199,-13.34852 -10.230688,-21.945558 -1.317909,-2.85214 -2.458121,-5.25289 -2.533805,-5.335 -0.07881,-0.0855 -0.137625,7.420168 -0.137625,17.560708 v 17.70999 h 8.249994 c 5.878717,0 8.250001,-0.0495 8.250001,-0.17229 z m 70.875537,-17.56776 c 0.002,-9.71381 -0.0232,-17.688498 -0.0563,-17.721548 -0.033,-0.033 -0.20273,0.27748 -0.37709,0.69006 -0.31215,0.7386 -1.88828,4.13076 -7.4674,16.071548 -7.49419,16.03955 -8.60341,18.43283 -8.60341,18.56289 0,0.0805 3.50304,0.12261 8.25014,0.0992 l 8.25014,-0.0407 0.004,-17.66148 z m 19.75049,17.54362 c -0.0434,-0.10803 -2.00451,-4.29785 -4.35793,-9.31071 -2.35342,-5.01286 -5.81579,-12.43785 -7.69417,-16.49999 -1.87839,-4.062138 -3.66892,-7.880708 -3.97898,-8.485708 l -0.56373,-1.1 -0.0477,17.730958 c -0.0263,9.75203 -0.0183,17.76042 0.0177,17.79642 0.036,0.036 3.8091,0.0655 8.38466,0.0655 6.59271,0 8.3028,-0.0407 8.24019,-0.19643 z M 56.581608,84.558962 c 1.091297,-0.51786 1.271132,-1.85226 0.370937,-2.75246 -0.667133,-0.66713 -1.575418,-0.6329 -2.294822,0.0865 -0.895806,0.89581 -0.66911,2.20215 0.468019,2.69706 0.641553,0.27922 0.809473,0.27563 1.455866,-0.0311 z m 90.652332,0.009 c 0.52176,-0.24759 1.01859,-1.02059 1.01745,-1.58304 -0.002,-0.50895 -0.6165,-1.3232 -1.1773,-1.55751 -1.52249,-0.63614 -2.97485,1.36172 -1.94327,2.67316 0.56986,0.72445 1.24514,0.87453 2.10312,0.46739 z m -90.291094,-8.62597 c 0.245665,-0.12704 0.68893,-0.52265 0.985055,-0.87914 l 0.538399,-0.64816 2.49659,0.2683 c 4.366778,0.4693 7.22027,0.0151 14.697692,-2.33941 6.09645,-1.91967 8.566045,-2.47952 10.991417,-2.4917 2.044619,-0.0103 3.944456,0.4176 5.765728,1.29851 0.707924,0.34242 1.326676,0.62257 1.374997,0.62257 0.04829,0 0.08784,-0.99227 0.08784,-2.20504 0,-2.55264 0.158982,-3.1212 1.01373,-3.62552 0.306727,-0.18098 0.557702,-0.36186 0.557702,-0.40195 0,-0.16257 -2.077302,-0.99952 -3.314508,-1.33541 -1.134161,-0.30792 -1.688275,-0.35756 -3.914065,-0.3506 -3.92918,0.0123 -5.27195,0.43032 -12.807136,3.9872 -2.333569,1.10154 -4.905713,2.267 -5.715899,2.58991 -3.080531,1.22784 -6.884488,1.92313 -9.714721,1.77568 l -1.444914,-0.0753 -0.786061,-0.70675 c -1.338037,-1.20301 -2.619253,-1.32171 -3.880721,-0.35955 -1.247238,0.95132 -1.502139,2.60835 -0.597531,3.88425 0.249776,0.3523 0.700542,0.77161 1.001691,0.9318 0.666866,0.35473 2.035437,0.38569 2.664713,0.0603 z m 91.240944,-0.15966 c 1.14856,-0.6731 1.69868,-2.51727 1.09765,-3.67956 -0.46812,-0.90523 -1.79694,-1.74437 -2.75803,-1.74168 -0.48658,0.001 -1.83636,0.75783 -2.26885,1.27156 l -0.44888,0.53317 -2.53042,-0.005 c -4.54495,-0.009 -7.22326,-0.81393 -14.63042,-4.39459 -3.5163,-1.6998 -5.60206,-2.59497 -7.28508,-3.12664 -3.90782,-1.23448 -7.9254,-1.1578 -11.22098,0.21415 -0.66814,0.27815 -1.25072,0.56385 -1.29463,0.63489 -0.0439,0.071 0.17623,0.28743 0.48917,0.48085 0.85687,0.52957 1.00439,1.05809 1.00439,3.5987 0,1.21277 0.0554,2.20504 0.12299,2.20504 0.0677,0 0.59565,-0.25097 1.17331,-0.55771 0.57767,-0.30675 1.74215,-0.73866 2.58771,-0.9598 3.51802,-0.92006 6.39293,-0.44664 16.30884,2.68561 3.18179,1.00508 5.9145,1.62327 8.11527,1.83584 1.51104,0.14595 2.2894,0.13169 4.47082,-0.0819 l 2.64126,-0.25863 0.55775,0.62127 c 0.74098,0.82536 1.32627,1.10146 2.35107,1.10904 0.63041,0.005 1.02297,-0.0948 1.51706,-0.38435 z m -45.6302,-13.08432 c 0.064,-4.50054 0.082,-4.59097 1.20854,-6.08313 1.17565,-1.55714 1.36054,-2.34094 0.87715,-3.71853 -0.28383,-0.8089 -3.41282,-7.049244 -3.53538,-7.050823 -0.19215,-0.0025 -3.612285,7.202953 -3.702656,7.800653 -0.125936,0.83291 0.107387,1.52722 0.887461,2.6408 1.36986,1.95556 1.322233,1.74264 1.372722,6.13603 0.02483,2.16072 0.07563,4.01696 0.112923,4.125 0.04704,0.13628 0.47408,0.19643 1.39475,0.19643 h 1.32696 z m -3.757892,64.374678 c -0.522316,-0.19323 -0.672276,-0.64334 -0.672276,-2.01794 v -1.26748 h -0.942857 -0.942857 v 1.30075 c 0,1.56176 -0.220139,1.99925 -1.005979,1.99925 -0.827166,0 -1.036875,-0.37208 -1.036875,-1.83973 v -1.26499 l -0.510717,-0.18922 c -1.664078,-0.61656 -2.05604,-1.03084 -2.239865,-2.36743 l -0.102488,-0.74517 -1.309345,0.0817 c -1.25111,0.0781 -1.327435,0.0636 -1.716314,-0.3253 -0.480682,-0.48067 -0.506737,-0.73469 -0.123857,-1.20752 0.244745,-0.30225 0.480005,-0.36087 1.735498,-0.43246 l 1.452362,-0.0828 -0.04621,-0.95995 -0.04621,-0.95995 -1.414285,-0.0418 c -1.213349,-0.0359 -1.453354,-0.0886 -1.689285,-0.37098 -0.351046,-0.42016 -0.346389,-0.64279 0.02298,-1.09895 0.263341,-0.3252 0.468981,-0.37749 1.767861,-0.44955 l 1.469865,-0.0816 0.05025,-0.61359 c 0.02762,-0.33747 0.0087,-0.77944 -0.04229,-0.98214 -0.08844,-0.35241 -0.154284,-0.36855 -1.50379,-0.36855 -1.201766,0 -1.457944,-0.0467 -1.725573,-0.31428 -0.392163,-0.39217 -0.395923,-0.65009 -0.01627,-1.11891 0.263341,-0.3252 0.468982,-0.37749 1.767861,-0.44955 l 1.469865,-0.0815 0.03076,-0.62857 c 0.06438,-1.31571 0.06782,-1.31284 -1.539514,-1.2863 -1.330167,0.022 -1.451857,-0.002 -1.732451,-0.34909 -0.193085,-0.23845 -0.266108,-0.49216 -0.202713,-0.70437 0.194885,-0.65242 0.461979,-0.7644 2.017191,-0.84575 l 1.505287,-0.0787 v -0.56789 c 0.0018,-1.09843 0.77531,-1.88891 2.08156,-2.12542 l 0.589287,-0.10669 0.0024,-1.28931 c 0.003,-1.58716 0.20592,-2.05652 0.919533,-2.12536 0.920608,-0.0888 1.121011,0.26167 1.121011,1.96041 v 1.4685 h 1.021427 1.021433 v -1.42462 c 5.35e-4,-1.70956 0.134875,-2.03252 0.845994,-2.03252 0.856286,0 1.040258,0.35652 1.040258,2.01594 v 1.4412 h 1.02142 1.02143 v -1.37932 c 0,-1.64909 0.20862,-2.07782 1.01111,-2.07782 0.287,0 0.59286,0.0884 0.67967,0.19642 0.0868,0.10804 0.20815,0.8859 0.26962,1.72858 l 0.11178,1.53214 h 0.9282 0.92819 v -1.37932 c 0,-1.65789 0.20711,-2.07782 1.0248,-2.07782 0.71703,0 0.86885,0.32653 0.92297,1.98515 0.0464,1.42055 0.15158,1.62208 0.84933,1.62672 0.97933,0.007 1.68254,0.80734 1.86261,2.12113 l 0.0973,0.70985 h 1.32469 c 1.61158,0 1.93259,0.14128 1.93259,0.85057 0,0.78366 -0.31996,0.95229 -1.8702,0.98567 l -1.35123,0.0291 -0.0463,0.93349 -0.0463,0.93349 1.41449,0.0676 c 1.53435,0.0734 2.05664,0.32552 2.05664,0.99291 0,0.67802 -0.53831,0.93803 -2.06621,0.99804 l -1.4051,0.0552 0.0464,0.96624 0.0464,0.96625 1.41428,0.0418 c 1.21335,0.0359 1.45335,0.0886 1.68929,0.37098 0.37144,0.44457 0.34636,0.70869 -0.11071,1.16575 -0.34969,0.34968 -0.51189,0.38572 -1.73608,0.38572 h -1.35034 l 0.0468,0.95304 0.0468,0.95305 1.35884,0.0291 c 1.08856,0.0233 1.42456,0.0886 1.68929,0.32846 0.43957,0.39822 0.41683,0.80711 -0.0721,1.29606 -0.3778,0.3778 -0.48149,0.3991 -1.68622,0.34642 -1.05094,-0.046 -1.28944,-0.0134 -1.31554,0.17959 -0.14921,1.10253 -0.2876,1.49176 -0.69573,1.9566 -0.27001,0.30752 -0.68496,0.57876 -0.9744,0.63694 -1.10792,0.22273 -1.05413,0.14292 -1.05413,1.56392 0,1.51099 -0.25374,2.01039 -1.02143,2.01039 -0.76938,0 -1.02142,-0.49869 -1.02142,-2.02098 v -1.3183 h -1.02143 -1.02143 v 1.47361 c 0,1.64128 -0.12306,1.87877 -0.97347,1.87877 -0.73907,0 -0.91224,-0.3736 -0.91224,-1.96813 v -1.38425 h -1.02143 -1.02143 v 1.30075 c 0,1.71661 -0.426328,2.33396 -1.370581,1.98466 z m 6.367722,-8.97399 c 0.26829,-0.26828 0.26829,-7.99742 0,-8.26571 -0.13618,-0.13617 -1.23519,-0.18857 -3.95549,-0.18857 -3.284614,0 -3.803705,0.0333 -4.054282,0.26007 -0.263198,0.2382 -0.287365,0.57745 -0.287365,4.03406 0,3.2912 0.03326,3.81074 0.260068,4.06135 0.238277,0.26329 0.57808,0.28737 4.054289,0.28737 2.74153,0 3.84652,-0.0523 3.98278,-0.18857 z"
       id="path295" /></g></svg>
